<?xml version="1.0" standalone="no"?>
<!DOCTYPE svg PUBLIC "-//W3C//DTD SVG 20010904//EN"
 "http://www.w3.org/TR/2001/REC-SVG-20010904/DTD/svg10.dtd">
<svg version="1.0" xmlns="http://www.w3.org/2000/svg"
 width="765.000000pt" height="1280.000000pt" viewBox="0 0 765.000000 1280.000000"
 preserveAspectRatio="xMidYMid meet">
<metadata>
Created by potrace 1.15, written by Peter Selinger 2001-2017
</metadata>
<g transform="translate(0.000000,1280.000000) scale(0.100000,-0.100000)"
fill="#000000" stroke="none">
<path d="M4642 12769 c-17 -17 -41 -59 -53 -93 -12 -33 -35 -86 -51 -117 -60
-119 -70 -240 -28 -322 16 -31 18 -42 9 -59 -23 -42 -1481 -2453 -1489 -2461
-4 -5 -46 10 -94 33 -120 60 -160 62 -267 15 -65 -29 -101 -39 -159 -43 -83
-5 -114 -17 -180 -72 -81 -67 -109 -80 -178 -80 -115 0 -181 -44 -239 -157
-22 -43 -63 -109 -92 -146 -43 -57 -51 -75 -51 -111 0 -49 19 -72 68 -82 45
-9 48 -20 12 -50 -62 -53 -77 -123 -37 -169 15 -18 34 -28 57 -30 45 -3 47
-14 19 -132 -21 -89 -22 -98 -7 -123 l16 -28 -51 -6 c-73 -10 -163 -43 -214
-77 -33 -23 -60 -32 -120 -39 -48 -5 -136 -29 -228 -60 -204 -70 -293 -90
-397 -90 -71 0 -102 -6 -175 -31 -94 -33 -323 -144 -323 -157 0 -4 -17 -26
-39 -50 -28 -30 -46 -42 -67 -42 -70 0 -184 -79 -247 -169 -29 -42 -32 -53
-32 -121 0 -60 8 -98 39 -190 49 -147 76 -199 121 -238 31 -28 44 -32 98 -34
34 -1 76 -3 92 -3 17 -1 46 -12 65 -23 41 -26 75 -27 150 -7 70 19 124 19 197
0 88 -23 258 -29 453 -16 96 6 187 14 202 17 26 5 30 -1 117 -173 175 -345
259 -437 458 -504 l93 -31 24 -81 c52 -171 60 -212 60 -307 0 -74 -5 -109 -22
-157 -12 -34 -22 -78 -22 -98 0 -30 -6 -38 -39 -59 -80 -51 -109 -140 -62
-190 19 -20 20 -27 10 -52 -8 -17 -13 -89 -14 -179 -2 -130 -5 -156 -23 -195
-27 -57 -28 -100 -1 -134 20 -25 20 -28 5 -74 -8 -26 -27 -110 -41 -187 -15
-77 -36 -160 -47 -185 -42 -93 -41 -149 2 -195 21 -22 21 -24 6 -126 -9 -57
-20 -219 -25 -359 -19 -479 -31 -725 -42 -804 -14 -109 -45 -203 -70 -216 -50
-27 -76 -123 -45 -166 13 -17 12 -21 -1 -36 -13 -14 -14 -28 -8 -70 5 -29 8
-73 7 -98 -1 -25 -1 -60 -2 -77 0 -37 -24 -57 -81 -67 -61 -11 -81 -42 -90
-143 -9 -104 -28 -241 -75 -533 -50 -317 -52 -352 -20 -424 31 -71 32 -98 5
-143 -28 -45 -27 -116 4 -192 25 -61 25 -61 6 -99 -11 -21 -25 -88 -33 -155
-8 -64 -20 -125 -25 -136 -36 -66 -53 -286 -30 -378 16 -62 69 -115 142 -142
68 -25 238 -46 317 -38 144 13 270 125 270 239 0 53 -15 103 -74 245 -25 62
-46 123 -46 137 0 13 10 46 22 73 26 58 30 191 9 298 l-13 70 34 51 c47 69 83
188 113 371 14 84 38 203 54 265 16 62 50 217 76 343 42 209 51 239 96 330 37
75 51 116 56 165 4 40 14 75 26 91 16 22 19 42 18 117 -1 67 4 103 17 139 11
26 106 337 213 690 106 354 196 640 200 635 4 -4 46 -162 94 -352 96 -380 158
-581 230 -739 39 -88 45 -108 36 -128 -14 -31 -14 -91 0 -131 9 -25 8 -36 -5
-54 -32 -46 -16 -138 32 -181 l20 -19 -23 -34 c-13 -19 -32 -61 -43 -94 -12
-35 -32 -70 -49 -84 l-28 -24 3 -164 c4 -203 -9 -363 -53 -627 -44 -264 -65
-437 -65 -526 0 -46 -7 -91 -20 -129 -23 -63 -20 -86 13 -117 22 -20 22 -20 3
-52 -40 -67 -47 -87 -58 -165 -14 -97 0 -212 35 -282 19 -38 29 -47 72 -62 65
-22 182 -23 360 -2 118 14 158 15 251 6 355 -37 534 19 534 168 0 56 -38 137
-78 167 -38 28 -95 43 -137 36 -55 -9 -117 15 -191 73 -38 29 -88 66 -110 81
-37 25 -43 34 -48 76 -6 40 -3 55 16 85 19 31 24 56 29 147 5 98 22 176 152
705 81 327 147 597 147 601 0 4 -8 9 -19 12 -13 3 -21 17 -25 48 -11 77 -9 88
34 160 l43 70 -17 172 c-62 631 -168 1321 -231 1507 -26 75 -25 93 3 88 53 -8
102 37 102 94 0 30 -44 145 -122 318 -33 74 -71 163 -84 197 -22 58 -22 63 -7
93 15 31 14 36 -11 111 l-27 79 62 72 c109 126 138 232 90 325 -27 54 -67 75
-141 75 l-57 0 7 34 c10 44 -2 96 -33 142 -13 21 -31 69 -40 106 -14 60 -14
75 -2 110 14 39 13 42 -9 66 -44 47 -50 70 -57 235 -4 88 -10 207 -14 265 l-7
105 334 -335 c183 -184 643 -649 1022 -1032 l688 -698 -17 -37 c-38 -80 -2
-192 105 -323 34 -41 82 -102 107 -135 55 -73 66 -80 103 -65 38 16 127 110
145 155 19 44 19 108 1 143 -20 38 -148 160 -185 175 l-31 13 107 150 c288
403 575 874 724 1189 180 381 291 786 438 1590 23 121 48 254 56 295 20 101
19 163 -2 187 -10 11 -42 39 -71 63 -29 23 -60 56 -68 72 -14 28 -14 30 19 69
l35 40 -5 177 -5 177 -40 78 c-22 44 -37 81 -34 85 3 3 60 7 126 8 116 3 121
2 151 -23 l30 -26 211 84 c244 97 248 85 -47 119 l-190 21 -35 -40 c-29 -34
-44 -43 -89 -51 -30 -6 -57 -14 -60 -19 -4 -5 -38 -14 -76 -20 -60 -9 -79 -8
-130 8 -49 14 -59 21 -57 37 6 35 60 138 126 242 36 57 66 108 66 112 0 11
-250 539 -342 724 -251 502 -480 865 -723 1146 -171 198 -483 494 -907 860
l-214 185 30 20 c36 24 124 193 125 240 1 72 -54 142 -150 191 -63 31 -80 30
-117 -7z m188 -844 c172 -154 501 -488 674 -685 341 -388 555 -716 742 -1135
149 -335 164 -374 184 -449 31 -121 27 -202 -20 -390 -22 -88 -43 -194 -47
-234 -5 -55 -10 -75 -22 -79 -9 -2 -45 -15 -81 -29 -43 -16 -154 -37 -335 -64
-148 -22 -513 -76 -810 -120 -297 -44 -781 -116 -1075 -160 -294 -44 -610 -91
-702 -105 -226 -34 -210 -36 -187 26 11 28 22 78 26 112 4 44 13 70 30 90 44
54 22 135 -62 226 -54 59 -65 80 -65 130 0 30 4 41 15 41 8 0 24 9 35 20 17
17 20 33 20 116 0 52 -5 104 -11 115 -8 16 -7 25 6 39 13 14 15 28 10 59 l-7
41 36 0 c37 0 66 27 66 62 0 19 -5 23 -122 88 -43 24 -78 48 -78 53 0 7 662
1104 1458 2415 l45 74 56 -55 c31 -30 130 -121 221 -202z m1288 -3122 c-61
-109 -156 -165 -309 -185 l-95 -11 -47 28 c-67 39 -139 33 -268 -24 -52 -22
-123 -47 -159 -54 -84 -18 -109 -31 -125 -71 -12 -29 -20 -34 -92 -50 -43 -10
-235 -61 -428 -113 -484 -131 -776 -197 -957 -218 -50 -6 -60 -4 -90 18 -71
52 -148 60 -222 23 l-48 -24 -59 63 c-37 39 -77 70 -104 82 -47 19 -54 27 -31
36 8 3 21 25 30 49 l17 44 522 77 c1184 176 1623 242 2017 302 228 35 427 63
442 64 l27 1 -21 -37z m421 -597 c23 -28 84 -152 108 -219 27 -78 43 -216 32
-286 -4 -25 -19 -127 -33 -226 -127 -849 -300 -1282 -934 -2325 -85 -140 -158
-259 -162 -263 -4 -5 -468 461 -1031 1033 l-1024 1042 1 111 c2 131 -6 119
156 208 337 184 732 302 1293 384 99 15 230 29 290 31 64 3 137 13 175 24 36
10 112 26 169 35 201 30 266 82 284 225 1 8 29 29 62 47 33 17 64 41 69 52 10
24 20 25 64 10 33 -11 75 3 102 36 7 9 26 23 41 30 23 13 33 12 72 -1 57 -19
112 -7 153 35 32 32 93 41 113 17z"/>
</g>
</svg>
